<?xml version="1.0" standalone="no"?><!DOCTYPE svg PUBLIC "-//W3C//DTD SVG 1.1//EN" "http://www.w3.org/Graphics/SVG/1.1/DTD/svg11.dtd"><svg t="1522662950236" class="icon" style="" viewBox="0 0 1024 1024" version="1.1" xmlns="http://www.w3.org/2000/svg" p-id="1363" xmlns:xlink="http://www.w3.org/1999/xlink" width="200" height="200"><defs><style type="text/css"></style></defs><path d="M355.639 497.251h114.373c18.349 0 22.268-16.839 22.268-35.204v-114.399c0.027-81.541-55.11-144.965-136.64-144.965-81.506 0-154.33 63.424-154.33 144.965s72.822 149.603 154.33 149.603v0zM564.686 497.232h114.373c81.506 0 143.631-68.043 143.631-149.603 0-81.522-62.124-146.302-143.631-146.302-81.557 0-144.582 64.74-144.582 146.322v114.361c0 18.403 11.807 35.223 30.209 35.223v0zM679.059 540h-114.373c-18.353 0-30.209 14.909-30.209 33.275v97.751c0 81.541 63.025 151.649 144.582 151.649 81.506 0 143.631-70.049 143.631-151.649 0-81.503-62.125-131.024-143.631-131.024v0zM470.011 540h-114.373c-81.506 0-154.33 49.503-154.33 131.043s72.822 150.309 154.33 150.309c81.53 0 136.667-68.768 136.667-150.309v-97.751c0.029-18.385-3.918-33.294-22.294-33.294v0zM470.011 540z" p-id="1364"></path></svg>