<?xml version="1.0" standalone="no"?><!DOCTYPE svg PUBLIC "-//W3C//DTD SVG 1.1//EN" "http://www.w3.org/Graphics/SVG/1.1/DTD/svg11.dtd"><svg t="1522675679642" class="icon" style="" viewBox="0 0 1024 1024" version="1.1" xmlns="http://www.w3.org/2000/svg" p-id="6190" xmlns:xlink="http://www.w3.org/1999/xlink" width="200" height="200"><defs><style type="text/css"></style></defs><path d="M667.5968 113.11104 266.07616 113.11104c-26.94144 0-48.896 21.98528-48.896 48.92672l0 699.93472c0 26.9824 21.9648 48.91648 48.896 48.91648l491.8272 0c26.99264 0 48.90624-21.94432 48.90624-48.91648L806.8096 264.40704 667.5968 113.11104zM679.14752 186.32704l61.0304 66.33472-61.0304 0L679.14752 186.32704zM757.9136 869.80608l-491.8272 0c-4.3008 0-7.82336-3.5328-7.82336-7.84384L258.26304 518.79936l141.4656 0c10.3424 0 18.70848-8.38656 18.70848-18.71872 0-10.32192-8.36608-18.70848-18.70848-18.70848L258.26304 481.37216 258.26304 162.03776c0-4.32128 3.52256-7.8336 7.82336-7.8336L638.0544 154.20416l0 118.99904c0 11.32544 9.22624 20.50048 20.56192 20.50048l107.15136 0 0 187.65824-157.0816 0c-10.3424 0-18.71872 8.38656-18.71872 18.70848 0 10.33216 8.37632 18.71872 18.71872 18.71872l157.0816 0 0 343.17312C765.75744 866.28352 762.23488 869.80608 757.9136 869.80608zM578.41664 499.39456c0.86016 0.88064 1.36192 2.07872 1.36192 3.30752 0 1.24928-0.50176 2.41664-1.36192 3.31776l-13.98784 13.9776c-0.91136 0.9216-2.10944 1.36192-3.30752 1.36192s-2.39616-0.44032-3.30752-1.36192c-1.83296-1.83296-1.83296-4.80256 0-6.62528l3.39968-3.38944L518.5536 509.98272l0 42.40384 3.38944-3.39968c1.83296-1.82272 4.79232-1.82272 6.61504 0 1.82272 1.83296 1.82272 4.80256 0 6.62528l-13.98784 13.9776c-0.8704 0.89088-2.05824 1.37216-3.30752 1.37216-1.23904 0-2.41664-0.50176-3.29728-1.3824l-13.9776-13.9776c-1.82272-1.83296-1.82272-4.79232 0-6.61504 1.8432-1.82272 4.80256-1.82272 6.61504 0.01024l3.38944 3.40992 0-42.42432-47.43168 0 3.39968 3.38944c1.82272 1.83296 1.82272 4.80256 0 6.62528-0.9216 0.9216-2.10944 1.36192-3.30752 1.36192s-2.38592-0.44032-3.30752-1.36192l-13.9776-13.9776c-0.88064-0.90112-1.3824-2.06848-1.3824-3.31776 0-1.2288 0.50176-2.42688 1.3824-3.30752l13.9776-13.96736c1.83296-1.8432 4.79232-1.80224 6.61504 0 1.82272 1.83296 1.82272 4.79232 0 6.61504l-3.39968 3.38944 47.43168 0 0-47.69792-3.38944 3.39968c-0.91136 0.91136-2.0992 1.3824-3.29728 1.3824s-2.39616-0.4608-3.31776-1.37216c-1.82272-1.83296-1.82272-4.79232 0-6.61504l13.9776-13.98784c1.75104-1.75104 4.864-1.76128 6.61504-0.02048l13.98784 13.98784c1.82272 1.83296 1.82272 4.80256 0 6.62528-1.83296 1.83296-4.79232 1.83296-6.61504 0l-3.38944-3.39968 0 47.68768 42.6496 0-3.38944-3.38944c-1.83296-1.83296-1.83296-4.79232 0-6.61504 1.83296-1.80224 4.79232-1.8432 6.61504 0L578.41664 499.39456z" p-id="6191"></path></svg>