<?xml version="1.0" standalone="no"?><!DOCTYPE svg PUBLIC "-//W3C//DTD SVG 1.1//EN" "http://www.w3.org/Graphics/SVG/1.1/DTD/svg11.dtd"><svg t="1522676199911" class="icon" style="" viewBox="0 0 1024 1024" version="1.1" xmlns="http://www.w3.org/2000/svg" p-id="6464" xmlns:xlink="http://www.w3.org/1999/xlink" width="200" height="200"><defs><style type="text/css"></style></defs><path d="M837.818182 1024 186.181818 1024C160.465455 1024 139.636364 1003.147636 139.636364 977.454545L139.636364 232.727273C139.636364 207.010909 160.465455 186.181818 186.181818 186.181818L372.363636 186.181818C398.08 186.181818 418.909091 207.010909 418.909091 232.727273 418.909091 258.420364 398.08 279.272727 372.363636 279.272727L279.272727 279.272727C253.556364 279.272727 232.727273 300.101818 232.727273 325.818182L232.727273 884.363636C232.727273 910.08 253.556364 930.909091 279.272727 930.909091L744.727273 930.909091C770.443636 930.909091 791.272727 910.08 791.272727 884.363636L791.272727 325.818182C791.272727 300.101818 770.443636 279.272727 744.727273 279.272727L651.636364 279.272727C625.92 279.272727 605.090909 258.420364 605.090909 232.727273 605.090909 207.010909 625.92 186.181818 651.636364 186.181818L837.818182 186.181818C863.534545 186.181818 884.363636 207.010909 884.363636 232.727273L884.363636 977.454545C884.363636 1003.147636 863.534545 1024 837.818182 1024ZM605.090909 372.363636C605.090909 423.773091 563.409455 465.454545 512 465.454545 460.590545 465.454545 418.909091 423.773091 418.909091 372.363636 418.909091 337.989818 437.736727 308.317091 465.454545 292.189091L465.454545 46.545455C465.454545 20.829091 486.283636 0 512 0 537.716364 0 558.545455 20.829091 558.545455 46.545455L558.545455 292.189091C586.263273 308.317091 605.090909 337.989818 605.090909 372.363636Z" p-id="6465"></path></svg>