<?xml version="1.0" standalone="no"?><!DOCTYPE svg PUBLIC "-//W3C//DTD SVG 1.1//EN" "http://www.w3.org/Graphics/SVG/1.1/DTD/svg11.dtd"><svg t="1522812222920" class="icon" style="" viewBox="0 0 1024 1024" version="1.1" xmlns="http://www.w3.org/2000/svg" p-id="10582" xmlns:xlink="http://www.w3.org/1999/xlink" width="200" height="200"><defs><style type="text/css"></style></defs><path d="M817.56 12H206.44A111.22 111.22 0 0 0 95.33 123.11v777.78A111.22 111.22 0 0 0 206.44 1012h611.12a111.22 111.22 0 0 0 111.11-111.11V123.11A111.22 111.22 0 0 0 817.56 12z m55.56 888.89a55.63 55.63 0 0 1-55.56 55.56H206.44a55.63 55.63 0 0 1-55.56-55.56V123.11a55.63 55.63 0 0 1 55.56-55.56h611.12a55.63 55.63 0 0 1 55.56 55.56z" p-id="10583"></path><path d="M762 484.22H262a27.78 27.78 0 0 0 0 55.56h500a27.78 27.78 0 0 0 0-55.56zM762 262H262a27.78 27.78 0 0 0 0 55.56h500a27.78 27.78 0 0 0 0-55.56zM762 706.44H262a27.78 27.78 0 1 0 0 55.56h500a27.78 27.78 0 0 0 0-55.56z" p-id="10584"></path></svg>