<?xml version="1.0" encoding="UTF-8" standalone="no"?>
<!DOCTYPE svg PUBLIC "-//W3C//DTD SVG 1.1//EN" "http://www.w3.org/Graphics/SVG/1.1/DTD/svg11.dtd">
<!-- 由 Microsoft Visio, SVG Export 生成 蜕变测试框架.svg Page-1 -->
<svg xmlns="http://www.w3.org/2000/svg" xmlns:xlink="http://www.w3.org/1999/xlink" xmlns:ev="http://www.w3.org/2001/xml-events"
		xmlns:v="http://schemas.microsoft.com/visio/2003/SVGExtensions/" width="3.03158in" height="2.16869in"
		viewBox="0 0 218.273 156.146" xml:space="preserve" color-interpolation-filters="sRGB" class="st16">
	<v:documentProperties v:langID="2052" v:metric="true" v:viewMarkup="false">
		<v:userDefs>
			<v:ud v:nameU="msvSubprocessMaster" v:prompt="" v:val="VT4(Main process)"/>
			<v:ud v:nameU="msvNoAutoConnect" v:val="VT0(0):26"/>
		</v:userDefs>
	</v:documentProperties>

	<style type="text/css">
	<![CDATA[
		.st1 {fill:#000000;stroke:none;stroke-linecap:butt;stroke-width:0.146484}
		.st2 {fill:none;stroke:none;stroke-linecap:round;stroke-linejoin:round;stroke-width:0.75}
		.st3 {fill:#000000;font-family:宋体;font-size:0.666664em}
		.st4 {font-size:1em}
		.st5 {marker-end:url(#mrkr4-44);stroke:#000000;stroke-linecap:round;stroke-linejoin:round;stroke-width:0.239976}
		.st6 {fill:#000000;fill-opacity:1;stroke:#000000;stroke-opacity:1;stroke-width:0.14284489778425}
		.st7 {stroke:#000000;stroke-linecap:round;stroke-linejoin:round;stroke-width:0.239976}
		.st8 {fill:#ebf1df;stroke:#000000;stroke-linecap:round;stroke-linejoin:round;stroke-width:0.24}
		.st9 {fill:#f7b64d;stroke:none;stroke-linecap:butt;stroke-width:0.146484}
		.st10 {fill:#ffd782;stroke:none;stroke-linecap:butt;stroke-width:0.146484}
		.st11 {fill:#fdfeff;stroke:none;stroke-linecap:butt;stroke-width:0.146484}
		.st12 {fill:#48e065;stroke:none;stroke-linecap:butt;stroke-width:0.146484}
		.st13 {fill:#eaeaef;stroke:none;stroke-linecap:butt;stroke-width:0.146484}
		.st14 {fill:#d0d0dd;stroke:none;stroke-linecap:butt;stroke-width:0.146484}
		.st15 {fill:#ffffff;fill-opacity:0;stroke:#000000;stroke-linecap:round;stroke-linejoin:round;stroke-width:0.24}
		.st16 {fill:none;fill-rule:evenodd;font-size:12px;overflow:visible;stroke-linecap:square;stroke-miterlimit:3}
	]]>
	</style>

	<defs id="Markers">
		<g id="lend4">
			<path d="M 2 1 L 0 0 L 2 -1 L 2 1 " style="stroke:none"/>
		</g>
		<marker id="mrkr4-44" class="st6" v:arrowType="4" v:arrowSize="0" v:setback="14.0012" refX="-14.001200120012" orient="auto"
				markerUnits="strokeWidth" overflow="visible">
			<use xlink:href="#lend4" transform="scale(-7.000600060006,-7.000600060006) "/>
		</marker>
	</defs>
	<g v:mID="0" v:index="1" v:groupContext="foregroundPage">
		<title>页-1</title>
		<v:pageProperties v:drawingScale="0.0393701" v:pageScale="0.0393701" v:drawingUnits="24" v:shadowOffsetX="9"
				v:shadowOffsetY="-9"/>
		<v:layer v:name="连接线" v:index="0"/>
		<v:layer v:name="流程图" v:index="1"/>
		<g id="group1-1" transform="translate(7.36831,-106.904)" v:mID="1" v:groupContext="group">
			<title>工作表.1</title>
			<g id="shape2-2" v:mID="2" v:groupContext="shape">
				<title>工作表.2</title>
				<path d="M24.87 128.77 L0.39 128.77 C0.18 128.77 0 128.95 0 129.16 L0 155.75 C0 155.97 0.18 156.15 0.39 156.15 L24.87
							 156.15 C25.08 156.15 25.26 155.97 25.26 155.75 L25.26 129.16 C25.26 128.95 25.08 128.77 24.87 128.77
							 ZM2.3 130.88 L22.96 130.88 C23.06 130.88 23.15 130.96 23.15 131.07 L23.15 134.89 C23.15 135 23.06 135.09
							 22.96 135.09 L2.3 135.09 C2.2 135.09 2.11 135 2.11 134.89 L2.11 131.07 C2.11 130.96 2.2 130.88 2.3 130.88
							 ZM22.95 154.04 L2.3 154.04 C2.2 154.04 2.11 153.95 2.11 153.84 L2.11 150.02 C2.11 149.92 2.2 149.83
							 2.3 149.83 L22.96 149.83 C23.06 149.83 23.15 149.92 23.15 150.02 L23.15 153.84 C23.15 153.95 23.06 154.04
							 22.95 154.04 ZM22.95 147.72 L2.3 147.72 C2.2 147.72 2.11 147.63 2.11 147.52 L2.11 143.75 C2.11 143.64
							 2.2 143.55 2.3 143.55 L22.96 143.55 C23.06 143.55 23.15 143.64 23.15 143.75 L23.15 147.52 C23.15 147.63
							 23.06 147.72 22.95 147.72 ZM2.11 141.2 L2.11 137.43 C2.11 137.32 2.2 137.23 2.3 137.23 L22.96 137.23
							 C23.06 137.23 23.15 137.32 23.15 137.43 L23.15 141.2 C23.15 141.31 23.06 141.4 22.96 141.4 L2.3 141.4
							 C2.19 141.4 2.11 141.32 2.11 141.2 Z" class="st1"/>
			</g>
			<g id="shape3-4" v:mID="3" v:groupContext="shape" transform="translate(4.52338,-22.4262)">
				<title>工作表.3</title>
				<path d="M-0 156.14 A1.05319 1.05319 -180 0 0 1.49 154.66 A1.05319 1.05319 -180 1 0 0 156.14 Z" class="st1"/>
			</g>
			<g id="shape4-6" v:mID="4" v:groupContext="shape" transform="translate(4.52335,-16.1072)">
				<title>工作表.4</title>
				<path d="M0 156.14 A1.05319 1.05319 -180 0 0 1.49 154.66 A1.05319 1.05319 -180 1 0 0 156.14 Z" class="st1"/>
			</g>
			<g id="shape5-8" v:mID="5" v:groupContext="shape" transform="translate(4.52374,-9.78719)">
				<title>工作表.5</title>
				<path d="M0 156.15 A1.05319 1.05319 -180 0 0 1.49 154.65 A1.05319 1.05319 -180 1 0 0 156.15 Z" class="st1"/>
			</g>
			<g id="shape6-10" v:mID="6" v:groupContext="shape" transform="translate(4.52161,-3.46716)">
				<title>工作表.6</title>
				<path d="M0 156.15 A1.05319 1.05319 -180 1 0 1.49 154.65 A1.05319 1.05319 -180 1 0 0 156.15 Z" class="st1"/>
			</g>
		</g>
		<g id="shape7-12" v:mID="7" v:groupContext="shape" transform="translate(1.31585,-139.018)">
			<title>工作表.7</title>
			<desc>原始测 试用例</desc>
			<v:textBlock v:margins="rect(2,2,2,2)" v:tabSpace="42.5197"/>
			<v:textRect cx="18.6842" cy="150.146" width="37.37" height="12"/>
			<rect x="0" y="144.146" width="37.3683" height="12" class="st2"/>
			<text x="6.68" y="147.75" class="st3" v:langID="2052"><v:paragraph v:horizAlign="1"/><v:tabList/>原始测<v:newlineChar/><tspan
						x="6.68" dy="1.2em" class="st4">试用例</tspan></text>		</g>
		<g id="group9-16" transform="translate(49.888,-63.8995)" v:mID="9" v:groupContext="group">
			<title>工作表.9</title>
			<g id="shape10-17" v:mID="10" v:groupContext="shape">
				<title>工作表.10</title>
				<path d="M21.89 125.83 L3.37 125.83 A3.37173 3.37173 -180 0 0 0 129.2 L0 152.78 A3.37173 3.37173 -180 0 0 3.37 156.15
							 L21.89 156.15 A3.37173 3.37173 -180 0 0 25.26 152.78 L25.26 129.2 A3.37173 3.37173 -180 0 0 21.89 125.83
							 ZM23.58 152.78 A1.68647 1.68647 0 0 1 21.89 154.46 L3.37 154.46 A1.68647 1.68647 0 0 1 1.68 152.78 L1.68
							 129.2 A1.68647 1.68647 0 0 1 3.37 127.51 L21.89 127.51 A1.68647 1.68647 0 0 1 23.58 129.2 L23.58 152.78
							 Z" class="st1"/>
			</g>
			<g id="shape11-19" v:mID="11" v:groupContext="shape" transform="translate(4.21056,-7.57896)">
				<title>工作表.11</title>
				<path d="M16 147.72 L0.84 147.72 a0.842174 0.842174 -180 0 0 -1.15463E-14 1.68435 L16 149.41 a0.842174 0.842174 -180
							 0 0 0 -1.68435 ZM16 140.99 L0.84 140.99 a0.842174 0.842174 -180 0 0 -1.15463E-14 1.68435 L16 142.67
							 a0.842174 0.842174 -180 0 0 0 -1.68435 ZM16 154.46 L0.84 154.46 a0.842174 0.842174 -180 1 0 -1.17684E-14
							 1.68435 L16 156.15 a0.842174 0.842174 -180 0 0 0 -1.68435 Z" class="st1"/>
			</g>
		</g>
		<g id="shape12-21" v:mID="12" v:groupContext="shape" transform="translate(47.3788,-99.3326)">
			<title>工作表.12</title>
			<desc>蜕变关系</desc>
			<v:textBlock v:margins="rect(2,2,2,2)" v:tabSpace="42.5197"/>
			<v:textRect cx="18.6842" cy="150.146" width="37.37" height="12"/>
			<rect x="0" y="144.146" width="37.3683" height="12" class="st2"/>
			<text x="2.68" y="152.55" class="st3" v:langID="2052"><v:paragraph v:horizAlign="1"/><v:tabList/>蜕变关系</text>		</g>
		<g id="group13-24" transform="translate(7.36831,-22.3499)" v:mID="13" v:groupContext="group">
			<title>工作表.13</title>
			<g id="shape14-25" v:mID="14" v:groupContext="shape">
				<title>工作表.14</title>
				<path d="M24.87 128.77 L0.39 128.77 C0.18 128.77 0 128.95 0 129.16 L0 155.75 C0 155.97 0.18 156.15 0.39 156.15 L24.87
							 156.15 C25.08 156.15 25.26 155.97 25.26 155.75 L25.26 129.16 C25.26 128.95 25.08 128.77 24.87 128.77
							 ZM2.3 130.88 L22.96 130.88 C23.06 130.88 23.15 130.96 23.15 131.07 L23.15 134.89 C23.15 135 23.06 135.09
							 22.96 135.09 L2.3 135.09 C2.2 135.09 2.11 135 2.11 134.89 L2.11 131.07 C2.11 130.96 2.2 130.88 2.3 130.88
							 ZM22.95 154.04 L2.3 154.04 C2.2 154.04 2.11 153.95 2.11 153.84 L2.11 150.02 C2.11 149.92 2.2 149.83
							 2.3 149.83 L22.96 149.83 C23.06 149.83 23.15 149.92 23.15 150.02 L23.15 153.84 C23.15 153.95 23.06 154.04
							 22.95 154.04 ZM22.95 147.72 L2.3 147.72 C2.2 147.72 2.11 147.63 2.11 147.52 L2.11 143.75 C2.11 143.64
							 2.2 143.55 2.3 143.55 L22.96 143.55 C23.06 143.55 23.15 143.64 23.15 143.75 L23.15 147.52 C23.15 147.63
							 23.06 147.72 22.95 147.72 ZM2.11 141.2 L2.11 137.43 C2.11 137.32 2.2 137.23 2.3 137.23 L22.96 137.23
							 C23.06 137.23 23.15 137.32 23.15 137.43 L23.15 141.2 C23.15 141.31 23.06 141.4 22.96 141.4 L2.3 141.4
							 C2.19 141.4 2.11 141.32 2.11 141.2 Z" class="st1"/>
			</g>
			<g id="shape15-27" v:mID="15" v:groupContext="shape" transform="translate(4.52338,-22.4262)">
				<title>工作表.15</title>
				<path d="M-0 156.14 A1.05319 1.05319 -180 0 0 1.49 154.66 A1.05319 1.05319 -180 1 0 0 156.14 Z" class="st1"/>
			</g>
			<g id="shape16-29" v:mID="16" v:groupContext="shape" transform="translate(4.52335,-16.1072)">
				<title>工作表.16</title>
				<path d="M0 156.14 A1.05319 1.05319 -180 0 0 1.49 154.66 A1.05319 1.05319 -180 1 0 0 156.14 Z" class="st1"/>
			</g>
			<g id="shape17-31" v:mID="17" v:groupContext="shape" transform="translate(4.52374,-9.78719)">
				<title>工作表.17</title>
				<path d="M0 156.15 A1.05319 1.05319 -180 0 0 1.49 154.65 A1.05319 1.05319 -180 1 0 0 156.15 Z" class="st1"/>
			</g>
			<g id="shape18-33" v:mID="18" v:groupContext="shape" transform="translate(4.52161,-3.46716)">
				<title>工作表.18</title>
				<path d="M0 156.15 A1.05319 1.05319 -180 1 0 1.49 154.65 A1.05319 1.05319 -180 1 0 0 156.15 Z" class="st1"/>
			</g>
		</g>
		<g id="shape19-35" v:mID="19" v:groupContext="shape" transform="translate(1.31585,-5.12787)">
			<title>工作表.19</title>
			<desc>衍生测 试用例</desc>
			<v:textBlock v:margins="rect(2,2,2,2)" v:tabSpace="42.5197"/>
			<v:textRect cx="18.6842" cy="150.146" width="37.37" height="12"/>
			<rect x="0" y="144.146" width="37.3683" height="12" class="st2"/>
			<text x="6.68" y="147.75" class="st3" v:langID="2052"><v:paragraph v:horizAlign="1"/><v:tabList/>衍生测<v:newlineChar/><tspan
						x="6.68" dy="1.2em" class="st4">试用例</tspan></text>		</g>
		<g id="shape20-39" v:mID="20" v:groupContext="shape" v:layerMember="0" transform="translate(12.9134,-106.904)">
			<title>动态连接线</title>
			<path d="M7.09 156.15 L7.09 209.96" class="st5"/>
		</g>
		<g id="shape21-45" v:mID="21" v:groupContext="shape" v:layerMember="0" transform="translate(49.888,-70.9861)">
			<title>动态连接线.21</title>
			<path d="M0 149.06 L-29.89 149.06" class="st7"/>
		</g>
		<g id="shape22-48" v:mID="22" v:groupContext="shape" v:layerMember="1" transform="translate(99.4943,-58.9389)">
			<title>函数</title>
			<desc>待测程序</desc>
			<v:userDefs>
				<v:ud v:nameU="visVersion" v:prompt="" v:val="VT0(15):26"/>
			</v:userDefs>
			<v:textBlock v:margins="rect(2,2,2,2)" v:tabSpace="42.5197"/>
			<v:textRect cx="28.3465" cy="137.012" width="56.7" height="38.2677"/>
			<rect x="0" y="117.878" width="56.6929" height="38.2677" rx="7.08661" ry="7.08661" class="st8"/>
			<text x="12.35" y="139.41" class="st3" v:langID="2052"><v:paragraph v:horizAlign="1"/><v:tabList/>待测程序</text>		</g>
		<g id="shape23-51" v:mID="23" v:groupContext="shape" v:layerMember="0" transform="translate(99.4943,-70.9861)">
			<title>动态连接线.23</title>
			<path d="M0 149.06 L-20.98 149.06" class="st5"/>
		</g>
		<g id="shape24-56" v:mID="24" v:groupContext="shape" v:layerMember="0" transform="translate(32.63,-120.592)">
			<title>动态连接线.24</title>
			<path d="M0 156.15 L95.21 156.15 L95.21 176.17" class="st5"/>
		</g>
		<g id="shape25-61" v:mID="25" v:groupContext="shape" v:layerMember="0" transform="translate(32.63,-36.0381)">
			<title>动态连接线.25</title>
			<path d="M0 156.15 L25.17 156.15 A4.72441 4.72441 0 1 1 34.61 156.15 L95.21 156.15 L95.21 136.6" class="st5"/>
		</g>
		<g id="group27-66" transform="translate(174.775,-65.4513)" v:mID="27" v:groupContext="group">
			<title>工作表.27</title>
			<g id="shape28-67" v:mID="28" v:groupContext="shape" transform="translate(0.167996,0)">
				<title>工作表.28</title>
				<path d="M42.01 145.5 L42.01 144.8 L41.6 144.94 C41.57 144.92 41.53 144.9 41.5 144.88 L19.35 132.09 C18.73 131.73
							 17.78 131.69 17.25 132 L0.4 141.73 C0.3 141.61 0.17 141.45 0.16 141.44 C0.15 141.43 0 141.46 0 141.46
							 L0 142.26 L0.01 142.26 C0 142.5 0.17 142.76 0.52 142.96 L22.67 155.75 C23.3 156.11 24.24 156.15 24.77
							 155.83 L41.65 146.09 C41.92 145.94 42.04 145.72 42.01 145.5 Z" class="st9"/>
			</g>
			<g id="shape29-69" v:mID="29" v:groupContext="shape" transform="translate(0,-0.787725)">
				<title>工作表.29</title>
				<path d="M41.82 146.09 L24.94 155.83 C24.41 156.15 23.46 156.11 22.84 155.75 L0.69 142.96 C0.07 142.6 0 142.06 0.54
							 141.74 L17.41 132 C17.95 131.69 18.89 131.73 19.51 132.09 L41.67 144.88 C42.29 145.24 42.36 145.78 41.82
							 146.09 Z" class="st10"/>
			</g>
			<g id="shape30-71" v:mID="30" v:groupContext="shape" transform="translate(2.58391,-1.83379)">
				<title>工作表.30</title>
				<path d="M37.92 146.67 L21.51 156.15 L0 143.73 L16.41 134.25 L37.92 146.67 Z" class="st11"/>
			</g>
			<g id="shape31-73" v:mID="31" v:groupContext="shape" transform="translate(8.50479,-12.2222)">
				<title>工作表.31</title>
				<path d="M-0 154.52 A2.81491 1.62526 -0 1 0 5.63 154.52 A2.81491 1.62526 -0 1 0 0 154.52 Z" class="st12"/>
			</g>
			<g id="shape32-75" v:mID="32" v:groupContext="shape" transform="translate(14.161,-8.95653)">
				<title>工作表.32</title>
				<path d="M-0 154.52 A2.81491 1.62526 -0 1 0 5.63 154.52 A2.81491 1.62526 -0 1 0 0 154.52 Z" class="st12"/>
			</g>
			<g id="shape33-77" v:mID="33" v:groupContext="shape" transform="translate(19.8177,-5.69086)">
				<title>工作表.33</title>
				<path d="M-0 154.52 A2.81491 1.62526 -0 0 0 5.63 154.52 A2.81491 1.62526 -0 1 0 0 154.52 Z" class="st12"/>
			</g>
			<g id="shape34-79" v:mID="34" v:groupContext="shape" transform="translate(13.615,-8.36024)">
				<title>工作表.34</title>
				<path d="M5.99 145.61 L0.78 148.62 C0.63 148.71 0.37 148.7 0.19 148.6 C0.02 148.5 0 148.34 0.15 148.26 L5.37 145.24
							 C5.52 145.16 5.78 145.17 5.95 145.27 C6.13 145.37 6.15 145.52 5.99 145.61 ZM9.43 145.32 L2.24 149.47
							 C2.09 149.55 1.83 149.54 1.66 149.44 C1.49 149.34 1.47 149.19 1.62 149.11 L8.8 144.95 C8.95 144.87 9.22
							 144.88 9.39 144.98 C9.56 145.08 9.58 145.23 9.43 145.32 ZM11.65 148.87 L6.43 151.89 C6.28 151.97 6.02
							 151.96 5.85 151.86 C5.67 151.76 5.66 151.61 5.81 151.52 L11.02 148.51 C11.17 148.42 11.44 148.43 11.61
							 148.53 C11.78 148.64 11.8 148.79 11.65 148.87 ZM15.09 148.58 L7.9 152.73 C7.75 152.82 7.49 152.81 7.32
							 152.71 C7.14 152.61 7.12 152.46 7.27 152.37 L14.46 148.22 C14.61 148.13 14.87 148.14 15.05 148.24 C15.22
							 148.34 15.24 148.5 15.09 148.58 ZM17.41 152.2 L12.2 155.21 C12.05 155.3 11.78 155.29 11.61 155.19 C11.44
							 155.09 11.42 154.94 11.57 154.85 L16.79 151.84 C16.94 151.75 17.2 151.76 17.37 151.86 C17.54 151.96
							 17.56 152.11 17.41 152.2 ZM20.85 151.91 L13.66 156.06 C13.51 156.15 13.25 156.13 13.08 156.03 C12.9
							 155.93 12.88 155.78 13.03 155.7 L20.22 151.54 C20.37 151.46 20.63 151.47 20.81 151.57 C20.98 151.67
							 21 151.82 20.85 151.91 Z" class="st13"/>
			</g>
			<g id="shape35-81" v:mID="35" v:groupContext="shape" transform="translate(10.0163,-6.56356)">
				<title>工作表.35</title>
				<path d="M1.6 147.84 L1.6 149.29 C1.6 149.32 1.56 149.34 1.51 149.34 L0.25 149.34 C0.11 149.34 0 149.41 0 149.49
							 C0 149.57 0.11 149.63 0.25 149.63 L1.85 149.63 C1.99 149.63 2.1 149.57 2.1 149.49 L2.1 147.84 C2.1 147.76
							 1.99 147.69 1.85 147.69 C1.71 147.69 1.6 147.76 1.6 147.84 ZM7.25 151.1 L7.25 152.56 C7.25 152.59 7.22
							 152.61 7.17 152.61 L5.91 152.61 C5.77 152.61 5.66 152.67 5.66 152.76 C5.66 152.84 5.77 152.9 5.91 152.9
							 L7.51 152.9 C7.64 152.9 7.76 152.84 7.76 152.76 L7.76 151.1 C7.76 151.02 7.64 150.96 7.51 150.96 C7.37
							 150.96 7.25 151.02 7.25 151.1 ZM12.88 154.35 L12.88 155.8 C12.88 155.83 12.84 155.85 12.79 155.85 L11.53
							 155.85 C11.39 155.85 11.28 155.92 11.28 156 C11.28 156.08 11.39 156.15 11.53 156.15 L13.13 156.15 C13.27
							 156.15 13.38 156.08 13.38 156 L13.38 154.35 C13.38 154.27 13.27 154.2 13.13 154.2 C12.99 154.2 12.88
							 154.27 12.88 154.35 Z" class="st11"/>
			</g>
			<g id="shape36-83" v:mID="36" v:groupContext="shape" transform="translate(4.42112,-17.203)">
				<title>工作表.36</title>
				<path d="M9.17 150.69 C8.78 150.26 8 150.18 7.43 150.51 L5.19 151.8 A1.07439 1.07439 -180 0 0 4.89 151.05 C4.36 150.48
							 3.32 150.37 2.56 150.81 C1.8 151.25 1.61 152.07 2.14 152.64 A1.61159 1.61159 -180 0 0 2.94 153.1 L0.71
							 154.39 C0.14 154.72 0 155.33 0.39 155.76 L0.75 156.15 L9.53 151.08 L9.17 150.69 ZM3.13 151.43 C3.44
							 151.26 3.85 151.3 4.07 151.53 C4.28 151.76 4.2 152.09 3.9 152.26 C3.59 152.44 3.17 152.4 2.96 152.17
							 C2.75 151.94 2.83 151.61 3.13 151.43 Z" class="st14"/>
			</g>
			<g id="shape37-85" v:mID="37" v:groupContext="shape" transform="translate(4.46215,-17.371)">
				<title>工作表.37</title>
				<path d="M9.17 150.69 C8.78 150.26 8 150.18 7.43 150.51 L5.19 151.8 A1.07049 1.07049 -180 0 0 4.9 151.06 C4.37 150.48
							 3.32 150.37 2.56 150.81 C1.8 151.25 1.61 152.07 2.14 152.65 A1.60524 1.60524 -180 0 0 2.94 153.1 L0.71
							 154.39 C0.14 154.72 0 155.33 0.39 155.76 L0.75 156.15 L9.53 151.08 L9.17 150.69 ZM3.13 151.44 C3.44
							 151.26 3.86 151.3 4.07 151.53 C4.28 151.76 4.2 152.09 3.9 152.27 C3.59 152.44 3.18 152.4 2.96 152.17
							 C2.75 151.94 2.83 151.61 3.13 151.44 Z" class="st13"/>
			</g>
			<g id="shape38-87" v:mID="38" v:groupContext="shape" transform="translate(4.89337,-17.2709)">
				<title>工作表.38</title>
				<path d="M9.19 151.08 L0.41 156.15 L0 155.7 L8.78 150.63 L9.19 151.08 Z" class="st14"/>
			</g>
		</g>
		<g id="shape39-89" v:mID="39" v:groupContext="shape" v:layerMember="0" transform="translate(156.187,-70.9861)">
			<title>动态连接线.39</title>
			<path d="M0 149.06 L16.9 149.06" class="st5"/>
		</g>
		<g id="shape40-94" v:mID="40" v:groupContext="shape" transform="translate(180.53,-99.3326)">
			<title>工作表.40</title>
			<desc>测试结果</desc>
			<v:textBlock v:margins="rect(2,2,2,2)" v:tabSpace="42.5197"/>
			<v:textRect cx="18.6842" cy="150.146" width="37.37" height="12"/>
			<rect x="0" y="144.146" width="37.3683" height="12" class="st2"/>
			<text x="2.68" y="152.55" class="st3" v:langID="2052"><v:paragraph v:horizAlign="1"/><v:tabList/>测试结果</text>		</g>
		<g id="shape41-97" v:mID="41" v:groupContext="shape" v:layerMember="0" transform="translate(62.5197,-58.2656)">
			<title>动态连接线.41</title>
			<path d="M0 150.51 L0 186.65 L133.44 186.65 L133.44 150.97" class="st5"/>
		</g>
		<g id="shape42-102" v:mID="42" v:groupContext="shape" transform="translate(3.11634,-0.12)">
			<title>矩形</title>
			<v:userDefs>
				<v:ud v:nameU="visVersion" v:val="VT0(15):26"/>
			</v:userDefs>
			<rect x="0" y="0.239994" width="214.016" height="155.906" class="st15"/>
		</g>
	</g>
</svg>
